<mxfile host="Electron" modified="2024-05-07T19:12:07.409Z" agent="Mozilla/5.0 (Windows NT 10.0; Win64; x64) AppleWebKit/537.36 (KHTML, like Gecko) draw.io/24.2.5 Chrome/120.0.6099.109 Electron/28.1.0 Safari/537.36" etag="nKAZlO__Vc-b3KpV8-6V" version="24.2.5" type="device">
  <diagram name="Page-1" id="vGN9X2DzddOkBzpZhhDG">
    <mxGraphModel dx="1420" dy="390" grid="1" gridSize="10" guides="1" tooltips="1" connect="1" arrows="1" fold="1" page="1" pageScale="1" pageWidth="850" pageHeight="1100" math="0" shadow="0">
      <root>
        <mxCell id="0" />
        <mxCell id="1" parent="0" />
        <mxCell id="xGCXcKNujMqQe2aACtvo-31" value="" style="rounded=0;whiteSpace=wrap;html=1;align=left;dashed=1;" vertex="1" parent="1">
          <mxGeometry x="-548" y="790" width="118" height="70" as="geometry" />
        </mxCell>
        <mxCell id="xGCXcKNujMqQe2aACtvo-30" value="" style="rounded=0;whiteSpace=wrap;html=1;align=left;dashed=1;" vertex="1" parent="1">
          <mxGeometry x="-558" y="780" width="118" height="70" as="geometry" />
        </mxCell>
        <mxCell id="xGCXcKNujMqQe2aACtvo-29" value="" style="rounded=0;whiteSpace=wrap;html=1;align=left;" vertex="1" parent="1">
          <mxGeometry x="-568" y="770" width="118" height="70" as="geometry" />
        </mxCell>
        <mxCell id="xGCXcKNujMqQe2aACtvo-22" value="" style="rounded=0;whiteSpace=wrap;html=1;" vertex="1" parent="1">
          <mxGeometry x="-571" y="770" width="98" height="60" as="geometry" />
        </mxCell>
        <mxCell id="chyjXc4C6dUn4ldYj9yf-21" style="edgeStyle=orthogonalEdgeStyle;rounded=0;orthogonalLoop=1;jettySize=auto;html=1;exitX=1;exitY=0.5;exitDx=0;exitDy=0;entryX=0;entryY=0.5;entryDx=0;entryDy=0;" parent="1" source="0v4DPWJtoNmA8gACX8Pn-47" target="chyjXc4C6dUn4ldYj9yf-20" edge="1">
          <mxGeometry relative="1" as="geometry" />
        </mxCell>
        <mxCell id="0v4DPWJtoNmA8gACX8Pn-47" value="csi_rx_byte_align" style="rounded=0;whiteSpace=wrap;html=1;" parent="1" vertex="1">
          <mxGeometry x="-211.5" y="765" width="120" height="60" as="geometry" />
        </mxCell>
        <mxCell id="chyjXc4C6dUn4ldYj9yf-17" style="edgeStyle=orthogonalEdgeStyle;rounded=0;orthogonalLoop=1;jettySize=auto;html=1;exitX=1;exitY=0.5;exitDx=0;exitDy=0;entryX=0.25;entryY=0;entryDx=0;entryDy=0;strokeColor=#FF8000;" parent="1" source="chyjXc4C6dUn4ldYj9yf-10" target="chyjXc4C6dUn4ldYj9yf-11" edge="1">
          <mxGeometry relative="1" as="geometry" />
        </mxCell>
        <mxCell id="chyjXc4C6dUn4ldYj9yf-31" style="edgeStyle=orthogonalEdgeStyle;rounded=0;orthogonalLoop=1;jettySize=auto;html=1;exitX=1;exitY=0.5;exitDx=0;exitDy=0;entryX=0;entryY=0.25;entryDx=0;entryDy=0;strokeColor=#FF8000;" parent="1" source="chyjXc4C6dUn4ldYj9yf-10" target="chyjXc4C6dUn4ldYj9yf-66" edge="1">
          <mxGeometry relative="1" as="geometry">
            <mxPoint x="378.5" y="650.1764705882354" as="targetPoint" />
          </mxGeometry>
        </mxCell>
        <mxCell id="chyjXc4C6dUn4ldYj9yf-10" value="&lt;b&gt;&lt;font style=&quot;font-size: 14px;&quot;&gt;csi_rx_phy_clk&lt;/font&gt;&lt;/b&gt;&lt;div&gt;&lt;div style=&quot;text-align: left;&quot;&gt;&lt;font style=&quot;font-size: 10px;&quot;&gt;&amp;nbsp; &amp;nbsp; - IBUFDS&lt;/font&gt;&lt;/div&gt;&lt;div style=&quot;text-align: left;&quot;&gt;&lt;font style=&quot;font-size: 10px;&quot;&gt;&amp;nbsp; &amp;nbsp; - BUFMR&lt;/font&gt;&lt;/div&gt;&lt;div style=&quot;text-align: left;&quot;&gt;&lt;font style=&quot;font-size: 10px;&quot;&gt;&amp;nbsp; &amp;nbsp; - BUFR(BYPASS, bit_clock)&lt;/font&gt;&lt;/div&gt;&lt;div style=&quot;text-align: left;&quot;&gt;&lt;font style=&quot;font-size: 10px;&quot;&gt;&amp;nbsp; &amp;nbsp; - BUFR(DIV4, byte_clock)&lt;/font&gt;&lt;/div&gt;&lt;/div&gt;" style="rounded=0;whiteSpace=wrap;html=1;" parent="1" vertex="1">
          <mxGeometry x="-580" y="590" width="140" height="90" as="geometry" />
        </mxCell>
        <mxCell id="chyjXc4C6dUn4ldYj9yf-16" style="edgeStyle=orthogonalEdgeStyle;rounded=0;orthogonalLoop=1;jettySize=auto;html=1;exitX=0.25;exitY=1;exitDx=0;exitDy=0;entryX=0.25;entryY=0;entryDx=0;entryDy=0;strokeColor=#FF6666;" parent="1" source="chyjXc4C6dUn4ldYj9yf-10" target="chyjXc4C6dUn4ldYj9yf-15" edge="1">
          <mxGeometry relative="1" as="geometry" />
        </mxCell>
        <mxCell id="chyjXc4C6dUn4ldYj9yf-25" style="edgeStyle=orthogonalEdgeStyle;rounded=0;orthogonalLoop=1;jettySize=auto;html=1;exitX=1;exitY=0.5;exitDx=0;exitDy=0;entryX=0.75;entryY=0;entryDx=0;entryDy=0;" parent="1" source="chyjXc4C6dUn4ldYj9yf-11" target="0v4DPWJtoNmA8gACX8Pn-47" edge="1">
          <mxGeometry relative="1" as="geometry" />
        </mxCell>
        <mxCell id="chyjXc4C6dUn4ldYj9yf-28" style="edgeStyle=orthogonalEdgeStyle;rounded=0;orthogonalLoop=1;jettySize=auto;html=1;exitX=1;exitY=0.5;exitDx=0;exitDy=0;entryX=0.75;entryY=0;entryDx=0;entryDy=0;" parent="1" source="chyjXc4C6dUn4ldYj9yf-11" target="chyjXc4C6dUn4ldYj9yf-27" edge="1">
          <mxGeometry relative="1" as="geometry" />
        </mxCell>
        <mxCell id="chyjXc4C6dUn4ldYj9yf-18" style="edgeStyle=orthogonalEdgeStyle;rounded=0;orthogonalLoop=1;jettySize=auto;html=1;exitX=1;exitY=0.5;exitDx=0;exitDy=0;entryX=0;entryY=0.5;entryDx=0;entryDy=0;" parent="1" source="chyjXc4C6dUn4ldYj9yf-15" target="0v4DPWJtoNmA8gACX8Pn-47" edge="1">
          <mxGeometry relative="1" as="geometry" />
        </mxCell>
        <mxCell id="chyjXc4C6dUn4ldYj9yf-15" value="&amp;nbsp; &lt;b&gt;&lt;font style=&quot;font-size: 14px;&quot;&gt;csi_rx_phy_dat&lt;/font&gt;&lt;/b&gt;&lt;div&gt;&amp;nbsp; &amp;nbsp;&amp;nbsp;&lt;font style=&quot;font-size: 10px;&quot;&gt;- IBUFDS&amp;nbsp;&lt;/font&gt;&lt;/div&gt;&lt;div&gt;&lt;font style=&quot;font-size: 10px;&quot;&gt;&amp;nbsp; &amp;nbsp; - IDELAYE2&lt;br&gt;&amp;nbsp; &amp;nbsp; - ISERDESE2&lt;/font&gt;&lt;/div&gt;" style="rounded=0;whiteSpace=wrap;html=1;align=left;" parent="1" vertex="1">
          <mxGeometry x="-578" y="760" width="118" height="70" as="geometry" />
        </mxCell>
        <mxCell id="chyjXc4C6dUn4ldYj9yf-29" style="edgeStyle=orthogonalEdgeStyle;rounded=0;orthogonalLoop=1;jettySize=auto;html=1;exitX=1;exitY=0.5;exitDx=0;exitDy=0;entryX=0;entryY=0.5;entryDx=0;entryDy=0;" parent="1" source="chyjXc4C6dUn4ldYj9yf-20" target="chyjXc4C6dUn4ldYj9yf-27" edge="1">
          <mxGeometry relative="1" as="geometry" />
        </mxCell>
        <mxCell id="chyjXc4C6dUn4ldYj9yf-36" style="edgeStyle=orthogonalEdgeStyle;rounded=0;orthogonalLoop=1;jettySize=auto;html=1;exitX=1;exitY=0.5;exitDx=0;exitDy=0;entryX=0;entryY=0.75;entryDx=0;entryDy=0;" parent="1" source="chyjXc4C6dUn4ldYj9yf-27" target="chyjXc4C6dUn4ldYj9yf-66" edge="1">
          <mxGeometry relative="1" as="geometry">
            <mxPoint x="378.5" y="690" as="targetPoint" />
            <Array as="points">
              <mxPoint x="368.5" y="1000" />
              <mxPoint x="368.5" y="690" />
            </Array>
          </mxGeometry>
        </mxCell>
        <mxCell id="xGCXcKNujMqQe2aACtvo-21" style="edgeStyle=orthogonalEdgeStyle;rounded=0;orthogonalLoop=1;jettySize=auto;html=1;exitX=0.5;exitY=1;exitDx=0;exitDy=0;" edge="1" parent="1" source="chyjXc4C6dUn4ldYj9yf-27" target="chyjXc4C6dUn4ldYj9yf-102">
          <mxGeometry relative="1" as="geometry" />
        </mxCell>
        <mxCell id="chyjXc4C6dUn4ldYj9yf-27" value="csi_rx_packet_handler" style="rounded=0;whiteSpace=wrap;html=1;" parent="1" vertex="1">
          <mxGeometry x="97" y="765" width="130" height="60" as="geometry" />
        </mxCell>
        <mxCell id="chyjXc4C6dUn4ldYj9yf-32" value="Serdes reset" style="text;html=1;align=center;verticalAlign=middle;resizable=0;points=[];autosize=1;strokeColor=none;fillColor=none;" parent="1" vertex="1">
          <mxGeometry x="-131.5" y="690" width="90" height="30" as="geometry" />
        </mxCell>
        <mxCell id="chyjXc4C6dUn4ldYj9yf-37" value="packet_payload[15:0]" style="text;html=1;align=center;verticalAlign=middle;resizable=0;points=[];autosize=1;strokeColor=none;fillColor=none;" parent="1" vertex="1">
          <mxGeometry x="228.5" y="970" width="140" height="30" as="geometry" />
        </mxCell>
        <mxCell id="chyjXc4C6dUn4ldYj9yf-54" style="edgeStyle=orthogonalEdgeStyle;rounded=0;orthogonalLoop=1;jettySize=auto;html=1;" parent="1" source="chyjXc4C6dUn4ldYj9yf-38" edge="1">
          <mxGeometry relative="1" as="geometry">
            <Array as="points">
              <mxPoint x="-641.5" y="790" />
              <mxPoint x="-641.5" y="790" />
            </Array>
            <mxPoint x="-578" y="790" as="targetPoint" />
          </mxGeometry>
        </mxCell>
        <mxCell id="chyjXc4C6dUn4ldYj9yf-55" style="edgeStyle=orthogonalEdgeStyle;rounded=0;orthogonalLoop=1;jettySize=auto;html=1;entryX=0;entryY=0.5;entryDx=0;entryDy=0;" parent="1" source="chyjXc4C6dUn4ldYj9yf-38" target="chyjXc4C6dUn4ldYj9yf-10" edge="1">
          <mxGeometry relative="1" as="geometry">
            <Array as="points">
              <mxPoint x="-580" y="640" />
            </Array>
          </mxGeometry>
        </mxCell>
        <mxCell id="chyjXc4C6dUn4ldYj9yf-38" value="&lt;b&gt;IMX 219&lt;/b&gt;&lt;div&gt;2-lane&lt;/div&gt;&lt;div&gt;RPi V2.1 camera&lt;/div&gt;&lt;div&gt;sensor&lt;/div&gt;&lt;div&gt;&lt;br&gt;&lt;/div&gt;&lt;div style=&quot;text-align: left;&quot;&gt;&lt;font face=&quot;Courier New&quot;&gt;1280x720P@60Hz&lt;/font&gt;&lt;/div&gt;&lt;div style=&quot;text-align: left;&quot;&gt;&lt;font face=&quot;Courier New&quot;&gt;1920x1080P@30Hz&lt;/font&gt;&lt;/div&gt;&lt;div&gt;&lt;span style=&quot;color: rgba(0, 0, 0, 0); font-family: monospace; font-size: 0px; text-align: start; text-wrap: nowrap;&quot;&gt;%3CmxGraphModel%3E%3Croot%3E%3CmxCell%20id%3D%220%22%2F%3E%3CmxCell%20id%3D%221%22%20parent%3D%220%22%2F%3E%3CmxCell%20id%3D%222%22%20style%3D%22edgeStyle%3DorthogonalEdgeStyle%3Brounded%3D0%3BorthogonalLoop%3D1%3BjettySize%3Dauto%3Bhtml%3D1%3BentryX%3D0.25%3BentryY%3D0%3BentryDx%3D0%3BentryDy%3D0%3BexitX%3D0.5%3BexitY%3D1%3BexitDx%3D0%3BexitDy%3D0%3B%22%20edge%3D%221%22%20parent%3D%221%22%3E%3CmxGeometry%20relative%3D%221%22%20as%3D%22geometry%22%3E%3CArray%20as%3D%22points%22%3E%3CmxPoint%20x%3D%22-210%22%20y%3D%22216%22%2F%3E%3C%2FArray%3E%3CmxPoint%20x%3D%22-210%22%20y%3D%22216%22%20as%3D%22sourcePoint%22%2F%3E%3CmxPoint%20x%3D%22-210%22%20y%3D%22280%22%20as%3D%22targetPoint%22%2F%3E%3C%2FmxGeometry%3E%3C%2FmxCell%3E%3C%2Froot%3E%3C%2FmxGraphModel%3E&lt;/span&gt;&lt;br&gt;&lt;/div&gt;&lt;div&gt;&lt;span style=&quot;color: rgba(0, 0, 0, 0); font-family: monospace; font-size: 0px; text-align: start; text-wrap: nowrap;&quot;&gt;%3CmxGraphModel%3E%3Croot%3E%3CmxCell%20id%3D%220%22%2F%3E%3CmxCell%20id%3D%221%22%20parent%3D%220%22%2F%3E%3CmxCell%20id%3D%222%22%20style%3D%22edgeStyle%3DorthogonalEdgeStyle%3Brounded%3D0%3BorthogonalLoop%3D1%3BjettySize%3Dauto%3Bhtml%3D1%3BentryX%3D0.25%3BentryY%3D0%3BentryDx%3D0%3BentryDy%3D0%3BexitX%3D0.5%3BexitY%3D1%3BexitDx%3D0%3BexitDy%3D0%3B%22%20edge%3D%221%22%20parent%3D%221%22%3E%3CmxGeometry%20relative%3D%221%22%20as%3D%22geometry%22%3E%3CArray%20as%3D%22points%22%3E%3CmxPoint%20x%3D%22-210%22%20y%3D%22216%22%2F%3E%3C%2FArray%3E%3CmxPoint%20x%3D%22-210%22%20y%3D%22216%22%20as%3D%22sourcePoint%22%2F%3E%3CmxPoint%20x%3D%22-210%22%20y%3D%22280%22%20as%3D%22targetPoint%22%2F%3E%3C%2FmxGeometry%3E%3C%2FmxCell%3E%3C%2Froot%3E%3C%2FmxGraphModel%3E&lt;/span&gt;&lt;br&gt;&lt;/div&gt;" style="rounded=0;whiteSpace=wrap;html=1;" parent="1" vertex="1">
          <mxGeometry x="-800" y="290" width="116.5" height="520" as="geometry" />
        </mxCell>
        <mxCell id="chyjXc4C6dUn4ldYj9yf-39" value="I2C&lt;div&gt;Master&lt;/div&gt;" style="whiteSpace=wrap;html=1;aspect=fixed;" parent="1" vertex="1">
          <mxGeometry x="-561.5" y="400" width="70" height="70" as="geometry" />
        </mxCell>
        <mxCell id="chyjXc4C6dUn4ldYj9yf-49" value="" style="group" parent="1" connectable="0" vertex="1">
          <mxGeometry x="-230" y="176" width="40" height="40" as="geometry" />
        </mxCell>
        <mxCell id="chyjXc4C6dUn4ldYj9yf-50" value="" style="whiteSpace=wrap;html=1;aspect=fixed;" parent="chyjXc4C6dUn4ldYj9yf-49" vertex="1">
          <mxGeometry width="40" height="40" as="geometry" />
        </mxCell>
        <mxCell id="chyjXc4C6dUn4ldYj9yf-51" value="" style="endArrow=none;html=1;rounded=0;entryX=0;entryY=0;entryDx=0;entryDy=0;exitX=1;exitY=1;exitDx=0;exitDy=0;" parent="chyjXc4C6dUn4ldYj9yf-49" source="chyjXc4C6dUn4ldYj9yf-50" target="chyjXc4C6dUn4ldYj9yf-50" edge="1">
          <mxGeometry width="50" height="50" relative="1" as="geometry">
            <mxPoint x="186.66666666666666" y="560" as="sourcePoint" />
            <mxPoint x="253.33333333333331" y="493.3333333333333" as="targetPoint" />
          </mxGeometry>
        </mxCell>
        <mxCell id="chyjXc4C6dUn4ldYj9yf-52" value="" style="endArrow=none;html=1;rounded=0;exitX=0;exitY=1;exitDx=0;exitDy=0;entryX=1;entryY=0;entryDx=0;entryDy=0;" parent="chyjXc4C6dUn4ldYj9yf-49" source="chyjXc4C6dUn4ldYj9yf-50" target="chyjXc4C6dUn4ldYj9yf-50" edge="1">
          <mxGeometry width="50" height="50" relative="1" as="geometry">
            <mxPoint x="-13.333333333333332" y="53.33333333333333" as="sourcePoint" />
            <mxPoint x="53.33333333333333" as="targetPoint" />
          </mxGeometry>
        </mxCell>
        <mxCell id="chyjXc4C6dUn4ldYj9yf-56" value="456MHz" style="text;html=1;align=center;verticalAlign=middle;resizable=0;points=[];autosize=1;strokeColor=none;fillColor=none;" parent="1" vertex="1">
          <mxGeometry x="-673" y="615" width="70" height="30" as="geometry" />
        </mxCell>
        <mxCell id="chyjXc4C6dUn4ldYj9yf-57" value="DDR&lt;div&gt;912Mbps/lane&lt;div&gt;&lt;div&gt;&amp;nbsp;2 lanes&lt;/div&gt;&lt;/div&gt;&lt;/div&gt;" style="text;html=1;align=center;verticalAlign=middle;resizable=0;points=[];autosize=1;strokeColor=none;fillColor=none;strokeWidth=3;" parent="1" vertex="1">
          <mxGeometry x="-685" y="735" width="100" height="60" as="geometry" />
        </mxCell>
        <mxCell id="chyjXc4C6dUn4ldYj9yf-62" value="SDA" style="text;html=1;align=center;verticalAlign=middle;resizable=0;points=[];autosize=1;strokeColor=none;fillColor=none;" parent="1" vertex="1">
          <mxGeometry x="-663.5" y="394" width="50" height="30" as="geometry" />
        </mxCell>
        <mxCell id="chyjXc4C6dUn4ldYj9yf-63" style="edgeStyle=orthogonalEdgeStyle;rounded=0;orthogonalLoop=1;jettySize=auto;html=1;exitX=0;exitY=0.75;exitDx=0;exitDy=0;entryX=0.986;entryY=0.314;entryDx=0;entryDy=0;entryPerimeter=0;" parent="1" source="chyjXc4C6dUn4ldYj9yf-39" target="chyjXc4C6dUn4ldYj9yf-38" edge="1">
          <mxGeometry relative="1" as="geometry">
            <mxPoint x="-680" y="446" as="targetPoint" />
          </mxGeometry>
        </mxCell>
        <mxCell id="chyjXc4C6dUn4ldYj9yf-64" value="SCL 400kHz" style="text;html=1;align=center;verticalAlign=middle;resizable=0;points=[];autosize=1;strokeColor=none;fillColor=none;" parent="1" vertex="1">
          <mxGeometry x="-662.5" y="430" width="90" height="30" as="geometry" />
        </mxCell>
        <mxCell id="chyjXc4C6dUn4ldYj9yf-68" style="edgeStyle=orthogonalEdgeStyle;rounded=0;orthogonalLoop=1;jettySize=auto;html=1;exitX=1;exitY=0.5;exitDx=0;exitDy=0;entryX=0;entryY=0.5;entryDx=0;entryDy=0;" parent="1" source="chyjXc4C6dUn4ldYj9yf-66" target="chyjXc4C6dUn4ldYj9yf-67" edge="1">
          <mxGeometry relative="1" as="geometry" />
        </mxCell>
        <mxCell id="chyjXc4C6dUn4ldYj9yf-66" value="raw2bgr" style="whiteSpace=wrap;html=1;aspect=fixed;" parent="1" vertex="1">
          <mxGeometry x="408.5" y="629" width="80" height="80" as="geometry" />
        </mxCell>
        <mxCell id="chyjXc4C6dUn4ldYj9yf-67" value="bgr2rgb" style="whiteSpace=wrap;html=1;aspect=fixed;" parent="1" vertex="1">
          <mxGeometry x="523.5" y="630" width="80" height="80" as="geometry" />
        </mxCell>
        <mxCell id="chyjXc4C6dUn4ldYj9yf-69" value="24 bit BGR&lt;br&gt;114 MHz" style="text;html=1;align=center;verticalAlign=middle;resizable=0;points=[];autosize=1;strokeColor=none;fillColor=none;" parent="1" vertex="1">
          <mxGeometry x="480" y="720" width="80" height="40" as="geometry" />
        </mxCell>
        <mxCell id="chyjXc4C6dUn4ldYj9yf-71" value="ASYNC FIFO &lt;br&gt;(XILINX IP)" style="rounded=0;whiteSpace=wrap;html=1;" parent="1" vertex="1">
          <mxGeometry x="730" y="520" width="150" height="200" as="geometry" />
        </mxCell>
        <mxCell id="chyjXc4C6dUn4ldYj9yf-73" value="114 MHz" style="text;html=1;align=center;verticalAlign=middle;resizable=0;points=[];autosize=1;strokeColor=none;fillColor=none;" parent="1" vertex="1">
          <mxGeometry x="648.5" y="620" width="70" height="30" as="geometry" />
        </mxCell>
        <mxCell id="chyjXc4C6dUn4ldYj9yf-75" value="24 bit RGB" style="text;html=1;align=center;verticalAlign=middle;resizable=0;points=[];autosize=1;strokeColor=none;fillColor=none;strokeWidth=0;" parent="1" vertex="1">
          <mxGeometry x="643.5" y="660" width="80" height="30" as="geometry" />
        </mxCell>
        <mxCell id="chyjXc4C6dUn4ldYj9yf-77" style="edgeStyle=orthogonalEdgeStyle;rounded=0;orthogonalLoop=1;jettySize=auto;html=1;exitX=1;exitY=0.75;exitDx=0;exitDy=0;entryX=0.003;entryY=0.848;entryDx=0;entryDy=0;entryPerimeter=0;" parent="1" source="chyjXc4C6dUn4ldYj9yf-67" target="chyjXc4C6dUn4ldYj9yf-71" edge="1">
          <mxGeometry relative="1" as="geometry" />
        </mxCell>
        <mxCell id="chyjXc4C6dUn4ldYj9yf-78" style="edgeStyle=orthogonalEdgeStyle;rounded=0;orthogonalLoop=1;jettySize=auto;html=1;exitX=1;exitY=0.25;exitDx=0;exitDy=0;entryX=-0.002;entryY=0.651;entryDx=0;entryDy=0;entryPerimeter=0;" parent="1" source="chyjXc4C6dUn4ldYj9yf-67" target="chyjXc4C6dUn4ldYj9yf-71" edge="1">
          <mxGeometry relative="1" as="geometry" />
        </mxCell>
        <mxCell id="chyjXc4C6dUn4ldYj9yf-82" style="edgeStyle=orthogonalEdgeStyle;rounded=0;orthogonalLoop=1;jettySize=auto;html=1;exitX=1;exitY=0.25;exitDx=0;exitDy=0;entryX=0.004;entryY=0.164;entryDx=0;entryDy=0;entryPerimeter=0;" parent="1" source="chyjXc4C6dUn4ldYj9yf-79" target="chyjXc4C6dUn4ldYj9yf-84" edge="1">
          <mxGeometry relative="1" as="geometry">
            <mxPoint x="410" y="414.8823529411766" as="targetPoint" />
          </mxGeometry>
        </mxCell>
        <mxCell id="chyjXc4C6dUn4ldYj9yf-79" value="HDMI_pll" style="whiteSpace=wrap;html=1;aspect=fixed;" parent="1" vertex="1">
          <mxGeometry x="245" y="400" width="60" height="60" as="geometry" />
        </mxCell>
        <mxCell id="chyjXc4C6dUn4ldYj9yf-80" style="edgeStyle=orthogonalEdgeStyle;rounded=0;orthogonalLoop=1;jettySize=auto;html=1;exitX=1;exitY=0.75;exitDx=0;exitDy=0;" parent="1" source="chyjXc4C6dUn4ldYj9yf-79" edge="1">
          <mxGeometry relative="1" as="geometry">
            <mxPoint x="730" y="587" as="targetPoint" />
            <Array as="points">
              <mxPoint x="410" y="445" />
              <mxPoint x="410" y="587" />
            </Array>
          </mxGeometry>
        </mxCell>
        <mxCell id="chyjXc4C6dUn4ldYj9yf-81" value="Pix clock&lt;div&gt;86.11 MHz&lt;/div&gt;" style="text;html=1;align=center;verticalAlign=middle;resizable=0;points=[];autosize=1;strokeColor=none;fillColor=none;" parent="1" vertex="1">
          <mxGeometry x="318" y="440" width="80" height="40" as="geometry" />
        </mxCell>
        <mxCell id="chyjXc4C6dUn4ldYj9yf-83" value="Pix5 clock&lt;div&gt;430.55 MHz&lt;/div&gt;" style="text;html=1;align=center;verticalAlign=middle;resizable=0;points=[];autosize=1;strokeColor=none;fillColor=none;" parent="1" vertex="1">
          <mxGeometry x="315" y="373" width="90" height="40" as="geometry" />
        </mxCell>
        <mxCell id="chyjXc4C6dUn4ldYj9yf-84" value="HDMI&lt;br&gt;Backend" style="whiteSpace=wrap;html=1;aspect=fixed;" parent="1" vertex="1">
          <mxGeometry x="455" y="405" width="60" height="60" as="geometry" />
        </mxCell>
        <mxCell id="chyjXc4C6dUn4ldYj9yf-85" style="edgeStyle=orthogonalEdgeStyle;rounded=0;orthogonalLoop=1;jettySize=auto;html=1;exitX=1;exitY=0.75;exitDx=0;exitDy=0;entryX=-0.012;entryY=0.656;entryDx=0;entryDy=0;entryPerimeter=0;" parent="1" source="chyjXc4C6dUn4ldYj9yf-79" target="chyjXc4C6dUn4ldYj9yf-84" edge="1">
          <mxGeometry relative="1" as="geometry" />
        </mxCell>
        <mxCell id="chyjXc4C6dUn4ldYj9yf-86" value="" style="endArrow=classic;html=1;rounded=0;exitX=-0.002;exitY=0.156;exitDx=0;exitDy=0;exitPerimeter=0;entryX=0.5;entryY=1;entryDx=0;entryDy=0;" parent="1" source="chyjXc4C6dUn4ldYj9yf-71" target="chyjXc4C6dUn4ldYj9yf-84" edge="1">
          <mxGeometry width="50" height="50" relative="1" as="geometry">
            <mxPoint x="480" y="500" as="sourcePoint" />
            <mxPoint x="530" y="450" as="targetPoint" />
            <Array as="points">
              <mxPoint x="485" y="550" />
            </Array>
          </mxGeometry>
        </mxCell>
        <mxCell id="chyjXc4C6dUn4ldYj9yf-88" value="86.11 MHz" style="text;html=1;align=center;verticalAlign=middle;resizable=0;points=[];autosize=1;strokeColor=none;fillColor=none;" parent="1" vertex="1">
          <mxGeometry x="640" y="560" width="80" height="30" as="geometry" />
        </mxCell>
        <mxCell id="chyjXc4C6dUn4ldYj9yf-89" value="24 bit RGB" style="text;html=1;align=center;verticalAlign=middle;resizable=0;points=[];autosize=1;strokeColor=none;fillColor=none;strokeWidth=0;" parent="1" vertex="1">
          <mxGeometry x="643.5" y="520" width="80" height="30" as="geometry" />
        </mxCell>
        <mxCell id="chyjXc4C6dUn4ldYj9yf-93" style="edgeStyle=orthogonalEdgeStyle;rounded=0;orthogonalLoop=1;jettySize=auto;html=1;exitX=1;exitY=0.5;exitDx=0;exitDy=0;entryX=0;entryY=0.5;entryDx=0;entryDy=0;" parent="1" source="xGCXcKNujMqQe2aACtvo-2" target="chyjXc4C6dUn4ldYj9yf-79" edge="1">
          <mxGeometry relative="1" as="geometry">
            <Array as="points">
              <mxPoint x="-160" y="335" />
              <mxPoint x="-160" y="430" />
            </Array>
          </mxGeometry>
        </mxCell>
        <mxCell id="xGCXcKNujMqQe2aACtvo-11" value="100MHz" style="edgeLabel;html=1;align=center;verticalAlign=middle;resizable=0;points=[];" vertex="1" connectable="0" parent="chyjXc4C6dUn4ldYj9yf-93">
          <mxGeometry x="0.2749" y="2" relative="1" as="geometry">
            <mxPoint as="offset" />
          </mxGeometry>
        </mxCell>
        <mxCell id="chyjXc4C6dUn4ldYj9yf-94" style="edgeStyle=orthogonalEdgeStyle;rounded=0;orthogonalLoop=1;jettySize=auto;html=1;entryX=0.25;entryY=0;entryDx=0;entryDy=0;exitX=0.5;exitY=1;exitDx=0;exitDy=0;" parent="1" source="chyjXc4C6dUn4ldYj9yf-50" edge="1">
          <mxGeometry relative="1" as="geometry">
            <Array as="points">
              <mxPoint x="-210" y="216" />
            </Array>
            <mxPoint x="-202" y="200" as="sourcePoint" />
            <mxPoint x="-210" y="280" as="targetPoint" />
          </mxGeometry>
        </mxCell>
        <mxCell id="chyjXc4C6dUn4ldYj9yf-96" value="Ext clock&lt;div&gt;&lt;span style=&quot;background-color: initial;&quot;&gt;100 MHz&lt;/span&gt;&lt;/div&gt;" style="text;html=1;align=center;verticalAlign=middle;resizable=0;points=[];autosize=1;strokeColor=none;fillColor=none;" parent="1" vertex="1">
          <mxGeometry x="-246" y="140" width="70" height="40" as="geometry" />
        </mxCell>
        <mxCell id="chyjXc4C6dUn4ldYj9yf-100" style="edgeStyle=orthogonalEdgeStyle;rounded=0;orthogonalLoop=1;jettySize=auto;html=1;exitX=1;exitY=0.5;exitDx=0;exitDy=0;" parent="1" source="chyjXc4C6dUn4ldYj9yf-97" edge="1">
          <mxGeometry relative="1" as="geometry">
            <mxPoint x="637" y="415" as="targetPoint" />
          </mxGeometry>
        </mxCell>
        <mxCell id="chyjXc4C6dUn4ldYj9yf-97" value="" style="swimlane;startSize=0;" parent="1" vertex="1">
          <mxGeometry x="228.5" y="320" width="315" height="190" as="geometry">
            <mxRectangle x="225" y="340" width="50" height="40" as="alternateBounds" />
          </mxGeometry>
        </mxCell>
        <mxCell id="chyjXc4C6dUn4ldYj9yf-99" value="&lt;b&gt;&lt;font style=&quot;font-size: 18px;&quot;&gt;HDMI&lt;/font&gt;&lt;/b&gt;" style="text;html=1;align=center;verticalAlign=middle;resizable=0;points=[];autosize=1;strokeColor=none;fillColor=none;" parent="chyjXc4C6dUn4ldYj9yf-97" vertex="1">
          <mxGeometry width="70" height="40" as="geometry" />
        </mxCell>
        <mxCell id="chyjXc4C6dUn4ldYj9yf-98" style="edgeStyle=orthogonalEdgeStyle;rounded=0;orthogonalLoop=1;jettySize=auto;html=1;exitX=0.5;exitY=1;exitDx=0;exitDy=0;" parent="1" source="chyjXc4C6dUn4ldYj9yf-97" target="chyjXc4C6dUn4ldYj9yf-97" edge="1">
          <mxGeometry relative="1" as="geometry" />
        </mxCell>
        <mxCell id="chyjXc4C6dUn4ldYj9yf-101" value="DISPLAY" style="text;html=1;align=center;verticalAlign=middle;resizable=0;points=[];autosize=1;strokeColor=none;fillColor=none;" parent="1" vertex="1">
          <mxGeometry x="560" y="380" width="70" height="30" as="geometry" />
        </mxCell>
        <mxCell id="chyjXc4C6dUn4ldYj9yf-102" value="" style="swimlane;startSize=0;fillColor=#0000CC;strokeColor=#000000;gradientColor=none;fillStyle=auto;swimlaneFillColor=none;" parent="1" vertex="1">
          <mxGeometry x="-590" y="556" width="970" height="490" as="geometry" />
        </mxCell>
        <mxCell id="chyjXc4C6dUn4ldYj9yf-103" value="&lt;b&gt;&lt;font style=&quot;font-size: 18px;&quot;&gt;CSI_RX_TOP&lt;/font&gt;&lt;/b&gt;" style="text;html=1;align=center;verticalAlign=middle;resizable=0;points=[];autosize=1;strokeColor=none;fillColor=none;" parent="chyjXc4C6dUn4ldYj9yf-102" vertex="1">
          <mxGeometry x="235" y="14" width="140" height="40" as="geometry" />
        </mxCell>
        <mxCell id="chyjXc4C6dUn4ldYj9yf-11" value="csi_rx_clock_det" style="rounded=0;whiteSpace=wrap;html=1;" parent="chyjXc4C6dUn4ldYj9yf-102" vertex="1">
          <mxGeometry x="135" y="130" width="120" height="60" as="geometry" />
        </mxCell>
        <mxCell id="xGCXcKNujMqQe2aACtvo-19" value="" style="triangle;whiteSpace=wrap;html=1;rotation=90;strokeColor=#9033D6;fillColor=#9033D6;" vertex="1" parent="chyjXc4C6dUn4ldYj9yf-102">
          <mxGeometry x="215" y="130" width="20" height="20" as="geometry" />
        </mxCell>
        <mxCell id="chyjXc4C6dUn4ldYj9yf-30" value="&lt;div&gt;&lt;font color=&quot;#ff8000&quot;&gt;&lt;b&gt;&lt;font style=&quot;font-size: 14px;&quot;&gt;csi_byte_clk&lt;/font&gt;&lt;/b&gt; (114 MHz)&lt;/font&gt;&lt;/div&gt;" style="text;html=1;align=center;verticalAlign=middle;resizable=0;points=[];autosize=1;strokeColor=none;fillColor=none;" parent="chyjXc4C6dUn4ldYj9yf-102" vertex="1">
          <mxGeometry x="363" y="60" width="170" height="30" as="geometry" />
        </mxCell>
        <mxCell id="chyjXc4C6dUn4ldYj9yf-33" value="deser_data[15:0]" style="text;html=1;align=center;verticalAlign=middle;resizable=0;points=[];autosize=1;strokeColor=none;fillColor=none;" parent="chyjXc4C6dUn4ldYj9yf-102" vertex="1">
          <mxGeometry x="323" y="340" width="110" height="30" as="geometry" />
        </mxCell>
        <mxCell id="chyjXc4C6dUn4ldYj9yf-20" value="csi_rx_word_align" style="rounded=0;whiteSpace=wrap;html=1;" parent="chyjXc4C6dUn4ldYj9yf-102" vertex="1">
          <mxGeometry x="563" y="201" width="120" height="60" as="geometry" />
        </mxCell>
        <mxCell id="chyjXc4C6dUn4ldYj9yf-26" style="edgeStyle=orthogonalEdgeStyle;rounded=0;orthogonalLoop=1;jettySize=auto;html=1;exitX=1;exitY=0.5;exitDx=0;exitDy=0;entryX=0.75;entryY=0;entryDx=0;entryDy=0;" parent="chyjXc4C6dUn4ldYj9yf-102" source="chyjXc4C6dUn4ldYj9yf-11" target="chyjXc4C6dUn4ldYj9yf-20" edge="1">
          <mxGeometry relative="1" as="geometry" />
        </mxCell>
        <mxCell id="chyjXc4C6dUn4ldYj9yf-34" value="byte_align_data[15:0]" style="text;html=1;align=center;verticalAlign=middle;resizable=0;points=[];autosize=1;strokeColor=none;fillColor=none;" parent="chyjXc4C6dUn4ldYj9yf-102" vertex="1">
          <mxGeometry x="483" y="330" width="140" height="30" as="geometry" />
        </mxCell>
        <mxCell id="chyjXc4C6dUn4ldYj9yf-35" value="word_data[15:0]" style="text;html=1;align=center;verticalAlign=middle;resizable=0;points=[];autosize=1;strokeColor=none;fillColor=none;" parent="chyjXc4C6dUn4ldYj9yf-102" vertex="1">
          <mxGeometry x="643" y="350" width="110" height="30" as="geometry" />
        </mxCell>
        <mxCell id="xGCXcKNujMqQe2aACtvo-27" value="bit_clock" style="text;html=1;align=center;verticalAlign=middle;resizable=0;points=[];autosize=1;strokeColor=none;fillColor=none;fontColor=#FF9999;rotation=-90;" vertex="1" parent="chyjXc4C6dUn4ldYj9yf-102">
          <mxGeometry x="-8" y="147" width="70" height="30" as="geometry" />
        </mxCell>
        <mxCell id="xGCXcKNujMqQe2aACtvo-2" value="&lt;div style=&quot;text-align: left;&quot;&gt;&lt;b style=&quot;background-color: initial;&quot;&gt;&lt;font style=&quot;font-size: 14px;&quot;&gt;&amp;nbsp; &amp;nbsp; &amp;nbsp; &amp;nbsp; &amp;nbsp; clkrst_gen&lt;/font&gt;&lt;/b&gt;&lt;/div&gt;&lt;div style=&quot;text-align: left;&quot;&gt;&amp;nbsp; - PLL &lt;font style=&quot;font-size: 10px;&quot;&gt;(top, &lt;font style=&quot;&quot;&gt;MMCME2_BASE)&amp;nbsp;&lt;/font&gt;&lt;/font&gt;&lt;/div&gt;&lt;div style=&quot;text-align: left;&quot;&gt;&amp;nbsp; - 200MHz&lt;/div&gt;&lt;div style=&quot;text-align: left;&quot;&gt;&amp;nbsp; - reset sync&lt;/div&gt;&lt;div style=&quot;text-align: left;&quot;&gt;&amp;nbsp; - strobe400kHz&lt;/div&gt;&lt;div style=&quot;text-align: left;&quot;&gt;&amp;nbsp; - 1Hz&lt;/div&gt;&lt;div style=&quot;text-align: left;&quot;&gt;&amp;nbsp; - IDELAYCTRL&lt;/div&gt;&lt;div style=&quot;text-align: left;&quot;&gt;&amp;nbsp; - Power Sequencer&lt;/div&gt;" style="rounded=0;whiteSpace=wrap;html=1;" vertex="1" parent="1">
          <mxGeometry x="-240" y="290" width="150" height="130" as="geometry" />
        </mxCell>
        <mxCell id="xGCXcKNujMqQe2aACtvo-3" value="" style="group" connectable="0" vertex="1" parent="1">
          <mxGeometry x="-168" y="176" width="40" height="40" as="geometry" />
        </mxCell>
        <mxCell id="xGCXcKNujMqQe2aACtvo-4" value="" style="whiteSpace=wrap;html=1;aspect=fixed;" vertex="1" parent="xGCXcKNujMqQe2aACtvo-3">
          <mxGeometry width="40" height="40" as="geometry" />
        </mxCell>
        <mxCell id="xGCXcKNujMqQe2aACtvo-5" value="" style="endArrow=none;html=1;rounded=0;entryX=0;entryY=0;entryDx=0;entryDy=0;exitX=1;exitY=1;exitDx=0;exitDy=0;" edge="1" parent="xGCXcKNujMqQe2aACtvo-3" source="xGCXcKNujMqQe2aACtvo-4" target="xGCXcKNujMqQe2aACtvo-4">
          <mxGeometry width="50" height="50" relative="1" as="geometry">
            <mxPoint x="186.66666666666666" y="560" as="sourcePoint" />
            <mxPoint x="253.33333333333331" y="493.3333333333333" as="targetPoint" />
          </mxGeometry>
        </mxCell>
        <mxCell id="xGCXcKNujMqQe2aACtvo-6" value="" style="endArrow=none;html=1;rounded=0;exitX=0;exitY=1;exitDx=0;exitDy=0;entryX=1;entryY=0;entryDx=0;entryDy=0;" edge="1" parent="xGCXcKNujMqQe2aACtvo-3" source="xGCXcKNujMqQe2aACtvo-4" target="xGCXcKNujMqQe2aACtvo-4">
          <mxGeometry width="50" height="50" relative="1" as="geometry">
            <mxPoint x="-13.333333333333332" y="53.33333333333333" as="sourcePoint" />
            <mxPoint x="53.33333333333333" as="targetPoint" />
          </mxGeometry>
        </mxCell>
        <mxCell id="xGCXcKNujMqQe2aACtvo-7" value="Ext&lt;div&gt;reset&lt;/div&gt;" style="text;html=1;align=center;verticalAlign=middle;resizable=0;points=[];autosize=1;strokeColor=none;fillColor=none;" vertex="1" parent="1">
          <mxGeometry x="-174" y="140" width="50" height="40" as="geometry" />
        </mxCell>
        <mxCell id="xGCXcKNujMqQe2aACtvo-8" style="edgeStyle=orthogonalEdgeStyle;rounded=0;orthogonalLoop=1;jettySize=auto;html=1;entryX=0.25;entryY=0;entryDx=0;entryDy=0;exitX=0.5;exitY=1;exitDx=0;exitDy=0;" edge="1" parent="1" source="xGCXcKNujMqQe2aACtvo-4">
          <mxGeometry relative="1" as="geometry">
            <Array as="points" />
            <mxPoint x="-148" y="217" as="sourcePoint" />
            <mxPoint x="-148" y="281" as="targetPoint" />
          </mxGeometry>
        </mxCell>
        <mxCell id="xGCXcKNujMqQe2aACtvo-9" value="" style="edgeStyle=orthogonalEdgeStyle;rounded=0;orthogonalLoop=1;jettySize=auto;html=1;entryX=0.75;entryY=0;entryDx=0;entryDy=0;fillColor=#f8cecc;strokeColor=#AB3DFF;" edge="1" parent="1" target="chyjXc4C6dUn4ldYj9yf-11">
          <mxGeometry relative="1" as="geometry">
            <mxPoint x="-210" y="420" as="sourcePoint" />
            <mxPoint x="-398" y="680" as="targetPoint" />
            <Array as="points">
              <mxPoint x="-210" y="470" />
              <mxPoint x="-398" y="470" />
            </Array>
          </mxGeometry>
        </mxCell>
        <mxCell id="xGCXcKNujMqQe2aACtvo-10" value="&lt;font&gt;refclk 200MHz&lt;/font&gt;" style="edgeLabel;html=1;align=center;verticalAlign=middle;resizable=0;points=[];fontColor=#9033D6;" vertex="1" connectable="0" parent="xGCXcKNujMqQe2aACtvo-9">
          <mxGeometry x="-0.1088" y="-3" relative="1" as="geometry">
            <mxPoint x="56" y="3" as="offset" />
          </mxGeometry>
        </mxCell>
        <mxCell id="xGCXcKNujMqQe2aACtvo-12" style="edgeStyle=orthogonalEdgeStyle;rounded=0;orthogonalLoop=1;jettySize=auto;html=1;exitX=0;exitY=0.75;exitDx=0;exitDy=0;entryX=0.986;entryY=0.314;entryDx=0;entryDy=0;entryPerimeter=0;startArrow=classic;startFill=1;" edge="1" parent="1">
          <mxGeometry relative="1" as="geometry">
            <mxPoint x="-560.5" y="416.5" as="sourcePoint" />
            <mxPoint x="-684.5" y="416.5" as="targetPoint" />
          </mxGeometry>
        </mxCell>
        <mxCell id="xGCXcKNujMqQe2aACtvo-13" style="edgeStyle=orthogonalEdgeStyle;rounded=0;orthogonalLoop=1;jettySize=auto;html=1;exitX=0;exitY=0.25;exitDx=0;exitDy=0;entryX=1.022;entryY=0.047;entryDx=0;entryDy=0;entryPerimeter=0;" edge="1" parent="1" source="xGCXcKNujMqQe2aACtvo-14" target="chyjXc4C6dUn4ldYj9yf-38">
          <mxGeometry relative="1" as="geometry">
            <mxPoint x="-280" y="320" as="sourcePoint" />
            <mxPoint x="-690" y="330" as="targetPoint" />
          </mxGeometry>
        </mxCell>
        <mxCell id="xGCXcKNujMqQe2aACtvo-15" value="" style="edgeStyle=orthogonalEdgeStyle;rounded=0;orthogonalLoop=1;jettySize=auto;html=1;exitX=0;exitY=0.25;exitDx=0;exitDy=0;entryX=1.022;entryY=0.047;entryDx=0;entryDy=0;entryPerimeter=0;" edge="1" parent="1" source="xGCXcKNujMqQe2aACtvo-2" target="xGCXcKNujMqQe2aACtvo-14">
          <mxGeometry relative="1" as="geometry">
            <mxPoint x="-240" y="315" as="sourcePoint" />
            <mxPoint x="-681" y="314" as="targetPoint" />
          </mxGeometry>
        </mxCell>
        <mxCell id="xGCXcKNujMqQe2aACtvo-14" value="CAM_EN" style="text;html=1;align=center;verticalAlign=middle;resizable=0;points=[];autosize=1;strokeColor=none;fillColor=none;" vertex="1" parent="1">
          <mxGeometry x="-663.5" y="290" width="70" height="30" as="geometry" />
        </mxCell>
        <mxCell id="xGCXcKNujMqQe2aACtvo-16" value="" style="verticalLabelPosition=bottom;aspect=fixed;html=1;shape=mxgraph.salesforce.financial_services;" vertex="1" parent="1">
          <mxGeometry x="640" y="323.89" width="163.4" height="170.21" as="geometry" />
        </mxCell>
        <mxCell id="xGCXcKNujMqQe2aACtvo-17" value="" style="verticalLabelPosition=bottom;aspect=fixed;html=1;shape=mxgraph.salesforce.automation;" vertex="1" parent="1">
          <mxGeometry x="750" y="424" width="80" height="77.6" as="geometry" />
        </mxCell>
        <mxCell id="xGCXcKNujMqQe2aACtvo-18" value="&lt;font style=&quot;font-size: 18px;&quot;&gt;PC with Manual CLI and Automation SW&lt;/font&gt;" style="text;strokeColor=none;align=left;fillColor=none;html=1;verticalAlign=middle;whiteSpace=wrap;rounded=0;" vertex="1" parent="1">
          <mxGeometry x="640" y="496" width="166.8" height="16" as="geometry" />
        </mxCell>
        <mxCell id="xGCXcKNujMqQe2aACtvo-20" value="" style="triangle;whiteSpace=wrap;html=1;rotation=90;strokeColor=#FF8000;fillColor=#FF8000;" vertex="1" parent="1">
          <mxGeometry x="-468" y="691" width="20" height="20" as="geometry" />
        </mxCell>
        <mxCell id="xGCXcKNujMqQe2aACtvo-26" style="edgeStyle=orthogonalEdgeStyle;rounded=0;orthogonalLoop=1;jettySize=auto;html=1;exitX=0.25;exitY=1;exitDx=0;exitDy=0;entryX=0.25;entryY=0;entryDx=0;entryDy=0;strokeColor=#FF8000;" edge="1" parent="1">
          <mxGeometry relative="1" as="geometry">
            <mxPoint x="-527" y="680" as="sourcePoint" />
            <mxPoint x="-527" y="760" as="targetPoint" />
          </mxGeometry>
        </mxCell>
        <mxCell id="xGCXcKNujMqQe2aACtvo-28" value="byte_clock" style="text;html=1;align=center;verticalAlign=middle;resizable=0;points=[];autosize=1;strokeColor=none;fillColor=none;fontColor=#FF8000;rotation=-90;" vertex="1" parent="1">
          <mxGeometry x="-578" y="704" width="80" height="30" as="geometry" />
        </mxCell>
      </root>
    </mxGraphModel>
  </diagram>
</mxfile>
